<svg width="14" height="14" viewBox="0 0 14 14" fill="none" xmlns="http://www.w3.org/2000/svg">
<path d="M13.3016 12.0837H3.9399C3.55406 12.0837 3.24133 11.7709 3.24133 11.3851C3.24133 10.9992 3.55406 10.6865 3.9399 10.6865H13.3014C13.6873 10.6865 14 10.9992 14 11.3851C14 11.7709 13.6875 12.0837 13.3016 12.0837Z" fill="white"/>
<path d="M13.3016 7.69841H3.9399C3.55406 7.69841 3.24133 7.38568 3.24133 6.99984C3.24133 6.614 3.55406 6.30127 3.9399 6.30127H13.3014C13.6873 6.30127 14 6.614 14 6.99984C14.0002 7.38568 13.6875 7.69841 13.3016 7.69841Z" fill="white"/>
<path d="M13.3016 3.31364H3.9399C3.55406 3.31364 3.24133 3.00091 3.24133 2.61507C3.24133 2.22923 3.55406 1.9165 3.9399 1.9165H13.3014C13.6873 1.9165 14 2.22923 14 2.61507C14 3.00091 13.6875 3.31364 13.3016 3.31364Z" fill="white"/>
<path d="M0.938177 3.60731C1.45632 3.60731 1.87635 3.18727 1.87635 2.66913C1.87635 2.15099 1.45632 1.73096 0.938177 1.73096C0.420036 1.73096 0 2.15099 0 2.66913C0 3.18727 0.420036 3.60731 0.938177 3.60731Z" fill="white"/>
<path d="M0.938177 7.93836C1.45632 7.93836 1.87635 7.51833 1.87635 7.00019C1.87635 6.48205 1.45632 6.06201 0.938177 6.06201C0.420036 6.06201 0 6.48205 0 7.00019C0 7.51833 0.420036 7.93836 0.938177 7.93836Z" fill="white"/>
<path d="M0.938177 12.2689C1.45632 12.2689 1.87635 11.8489 1.87635 11.3308C1.87635 10.8126 1.45632 10.3926 0.938177 10.3926C0.420036 10.3926 0 10.8126 0 11.3308C0 11.8489 0.420036 12.2689 0.938177 12.2689Z" fill="white"/>
</svg>
