<?xml version="1.0" encoding="UTF-8"?>
<svg xmlns="http://www.w3.org/2000/svg" width="312" height="48" viewBox="0 0 312 48" fill="none">
  <path fill-rule="evenodd" clip-rule="evenodd" d="M26.3097 6.26962C26.0608 7.86441 25.3128 10.5267 23.0934 12.3733C22.9493 12.59 22.8446 12.8295 22.7838 13.0813C16.5596 11.6844 10.1427 11.3101 3.79394 11.9735C3.77204 11.7057 3.69157 11.4457 3.55802 11.2112C1.58311 9.1424 1.16136 6.41189 1.10646 4.79937C0.747531 4.62124 0.516119 3.78437 0.551091 3.20631C0.588771 2.58349 0.940703 2.49923 1.35468 2.52338C1.76866 2.54753 2.10886 2.65719 2.07028 3.29493C2.03846 3.82078 1.76256 4.53824 1.42552 4.75436C2.05922 6.8797 3.31375 8.69694 4.71933 8.96232C5.63524 9.13177 5.97638 7.65089 6.10322 6.62533C5.73493 6.41297 5.46396 5.59999 5.49781 5.04057C5.53639 4.40284 5.88855 4.31484 6.30253 4.33899C6.7165 4.36314 7.0567 4.47281 7.01699 5.12919C7.00323 5.62995 6.8414 6.11595 6.55123 6.52796C8.04627 9.66165 9.25154 10.1511 10.3188 10.2134C11.8797 10.3044 12.1177 7.94552 12.0148 7.37813C11.8705 6.64694 11.633 5.93648 11.3081 5.2635C12.5859 3.23095 14.0429 0 14.0429 0C14.0429 0 15.1002 3.37762 16.0817 5.54945C15.6781 6.17963 15.3579 6.85768 15.1287 7.56726C14.9695 8.11937 14.9177 10.4892 16.471 10.5798C17.542 10.6422 18.7751 10.295 20.6564 7.35827C20.418 6.91543 20.3159 6.41403 20.3626 5.9152C20.4012 5.27747 20.7533 5.18947 21.1673 5.21362C21.5813 5.23777 21.9215 5.34744 21.8818 6.00382C21.8479 6.56324 21.4694 7.33834 21.0895 7.50705C21.0918 8.54014 21.2558 10.0505 22.1819 9.98849C23.6096 9.88839 25.0744 8.22979 25.9599 6.19307C25.6556 5.93205 25.4643 5.18734 25.4957 4.66895C25.5343 4.03121 25.8853 3.96187 26.2993 3.98602C26.7132 4.01017 27.0534 4.11983 27.0149 4.75757C27.0183 5.33039 26.6724 6.13358 26.3097 6.26962ZM14.9501 5.4797C14.5733 4.58943 14.197 3.56446 13.8803 2.68893C13.8134 2.81978 13.7454 2.95361 13.6764 3.08942C13.2989 3.83248 12.8912 4.63497 12.4814 5.33569C12.7399 5.94888 12.9313 6.58734 13.0523 7.24029C13.1872 7.52811 13.3563 7.79927 13.556 8.04814C13.7869 7.82648 13.9878 7.57656 14.1537 7.30454C14.3525 6.67025 14.6195 6.05853 14.9501 5.4797Z" fill="#FFC42D"></path>
  <path fill-rule="evenodd" clip-rule="evenodd" d="M4.00962 16.2274C4.00068 16.0344 3.98929 15.8327 3.97261 15.6175C10.0009 14.9328 16.1048 15.2914 22.0069 16.677L21.9904 16.747C22.7146 16.9451 23.3843 17.1903 23.9997 17.4827C25.9387 18.3894 27.3698 19.6436 28.2932 21.2454C29.2473 22.817 29.7243 24.6454 29.7243 26.7308C29.7243 28.7859 29.2473 30.6294 28.2932 32.2615C27.3698 33.8632 25.9387 35.1175 23.9997 36.0241C23.8676 36.0848 23.7331 36.1434 23.596 36.1998L31.6633 47.8562H21.2297L14.8865 37.3388H12.9659V47.8562H4.00962V16.2274ZM12.9659 23.5574V30.6748H15.9667C16.9208 30.6748 17.7211 30.5388 18.3674 30.2668C19.0137 29.9948 19.5062 29.5868 19.8447 29.0428C20.214 28.4988 20.3987 27.849 20.3987 27.0934C20.3987 26.3379 20.214 25.7032 19.8447 25.1894C19.5062 24.6454 19.0137 24.2374 18.3674 23.9654C17.7211 23.6934 16.9208 23.5574 15.9667 23.5574H12.9659Z" fill="#FFC42D"></path>
  <path d="M22.2326 15.4086C22.2326 15.4086 22.3453 14.8051 22.4976 14.1778C16.3624 12.8044 10.0379 12.438 3.78076 13.0934C3.85277 13.7301 3.88838 14.3385 3.88838 14.3385C3.88838 14.3385 6.45735 13.7698 13.1038 14.1575C19.7502 14.5452 22.2326 15.4086 22.2326 15.4086Z" fill="white"></path>
  <path fill-rule="evenodd" clip-rule="evenodd" d="M108.058 46.909L110.503 42.1673H119.336L121.861 46.909H131.262L114.938 15.5633L98.657 46.909H108.058ZM111.999 36.1667H117.909L114.938 29.5786L111.999 36.1667Z" fill="white"></path>
  <path fill-rule="evenodd" clip-rule="evenodd" d="M36.0681 32.2223C36.0681 34.5162 36.4669 36.6283 37.2646 38.5585C38.0623 40.4888 39.1876 42.1673 40.6405 43.594C42.1219 44.9927 43.8597 46.0837 45.8539 46.867C47.8481 47.6223 50.0418 48 52.4348 48C54.8279 48 57.0215 47.6223 59.0157 46.867C61.0384 46.0837 62.7762 44.9927 64.2292 43.594C65.6821 42.1673 66.8074 40.4888 67.6051 38.5585C68.4027 36.6283 68.8016 34.5162 68.8016 32.2223C68.8016 29.9004 68.3885 27.8023 67.5623 25.9279C66.7646 24.0257 65.6251 22.4031 64.1437 21.0603C62.6623 19.6896 60.9245 18.6405 58.9303 17.9132C56.9645 17.1579 54.7994 16.7802 52.4348 16.7802C50.1272 16.7802 47.9763 17.1579 45.9821 17.9132C44.0164 18.6405 42.2929 19.6896 40.8114 21.0603C39.33 22.4031 38.162 24.0257 37.3073 25.9279C36.4812 27.8023 36.0681 29.9004 36.0681 32.2223ZM44.8284 32.2223C44.8284 30.6277 45.1417 29.229 45.7685 28.0261C46.3952 26.8231 47.2784 25.886 48.4179 25.2146C49.5575 24.5152 50.8964 24.1655 52.4348 24.1655C54.0587 24.1655 55.4261 24.5152 56.5372 25.2146C57.6768 25.886 58.5457 26.8231 59.1439 28.0261C59.7422 29.229 60.0413 30.6277 60.0413 32.2223C60.0413 33.7888 59.7279 35.1876 59.1012 36.4185C58.4744 37.6214 57.5913 38.5725 56.4517 39.2719C55.3407 39.9433 54.0017 40.279 52.4348 40.279C50.8964 40.279 49.5575 39.9433 48.4179 39.2719C47.2784 38.5725 46.3952 37.6214 45.7685 36.4185C45.1417 35.1876 44.8284 33.7888 44.8284 32.2223Z" fill="white"></path>
  <path d="M85.9719 27.8162L91.2281 17.5355H100.8L90.2025 35.1596V46.909H81.7414V35.2435L71.1008 17.5355H80.673L85.9719 27.8162Z" fill="white"></path>
  <path d="M136.554 17.5355V46.909H156.938V39.9852H144.844V17.5355H136.554Z" fill="white"></path>
  <path d="M292.355 36.1667L286.715 40.195C287.37 41.6497 288.338 42.9785 289.62 44.1814C290.902 45.3563 292.412 46.2795 294.15 46.9509C295.916 47.6503 297.825 48 299.876 48C301.329 48 302.754 47.7901 304.15 47.3705C305.546 46.9789 306.785 46.3914 307.867 45.6081C308.978 44.7969 309.847 43.7898 310.474 42.5868C311.129 41.3839 311.457 39.9992 311.457 38.4326C311.457 37.2577 311.272 36.1946 310.901 35.2435C310.531 34.2923 310.004 33.4531 309.32 32.7258C308.637 31.9704 307.825 31.327 306.885 30.7955C305.973 30.236 304.962 29.7604 303.851 29.3688C302.569 28.9212 301.429 28.5156 300.432 28.1519C299.463 27.7603 298.694 27.3546 298.124 26.935C297.583 26.4874 297.312 25.9419 297.312 25.2985C297.312 24.739 297.555 24.2914 298.039 23.9557C298.523 23.62 299.178 23.4521 300.005 23.4521C300.66 23.4521 301.301 23.578 301.928 23.8298C302.554 24.0816 303.138 24.4452 303.68 24.9208C304.249 25.3684 304.748 25.9419 305.175 26.6413L311.414 23.2423C310.873 22.2352 310.104 21.2421 309.107 20.263C308.11 19.2559 306.842 18.4307 305.303 17.7873C303.765 17.1159 301.942 16.7802 299.834 16.7802C297.811 16.7802 295.973 17.1159 294.321 17.7873C292.669 18.4587 291.344 19.4378 290.347 20.7246C289.35 21.9835 288.851 23.5361 288.851 25.3824C288.851 26.8371 289.122 28.096 289.663 29.159C290.233 30.222 290.931 31.1172 291.757 31.8446C292.612 32.5719 293.495 33.1734 294.407 33.6489C295.318 34.0965 296.144 34.4602 296.885 34.7399C298.395 35.2994 299.563 35.775 300.389 36.1667C301.244 36.5583 301.842 36.9499 302.184 37.3416C302.526 37.7053 302.697 38.1668 302.697 38.7263C302.697 39.5096 302.398 40.1111 301.799 40.5307C301.201 40.9223 300.446 41.1182 299.535 41.1182C298.594 41.1182 297.683 40.9223 296.8 40.5307C295.916 40.1391 295.104 39.5796 294.364 38.8522C293.623 38.0969 292.954 37.2017 292.355 36.1667Z" fill="white"></path>
  <path fill-rule="evenodd" clip-rule="evenodd" d="M189.757 46.9089L183.886 37.1737H182.108V46.9089H173.818V17.5355H185.569C188.304 17.5355 190.555 17.9551 192.321 18.7944C194.116 19.6336 195.44 20.7945 196.295 22.2772C197.178 23.7319 197.62 25.4244 197.62 27.3546C197.62 29.2569 197.178 30.9634 196.295 32.474C195.44 33.9566 194.116 35.1176 192.321 35.9568C192.199 36.013 192.074 36.0672 191.947 36.1195L199.415 46.9089H189.757ZM182.108 31.0053V24.4173H184.885C185.769 24.4173 186.509 24.5432 187.108 24.7949C187.706 25.0467 188.162 25.4244 188.475 25.9279C188.817 26.4035 188.988 26.9909 188.988 27.6903C188.988 28.3897 188.817 28.9911 188.475 29.4947C188.162 29.9982 187.706 30.3759 187.108 30.6277C186.509 30.8794 185.769 31.0053 184.885 31.0053H182.108Z" fill="white"></path>
  <path d="M225.646 40.3209V46.9089H204.921V17.5355H225.646V24.1235H212.869V28.4456H224.792V34.8239H212.869V40.3209H225.646Z" fill="white"></path>
  <path d="M254.454 46.9089H233.729V17.5355H254.454V24.1235H241.677V28.4456H253.6V34.8239H241.677V40.3209H254.454V46.9089Z" fill="white"></path>
  <path d="M262.537 46.9089V17.5355H270.827V39.9852H282.921V46.9089H262.537Z" fill="white"></path>
</svg>
